<svg width="89" height="24" viewBox="0 0 89 24" fill="none" xmlns="http://www.w3.org/2000/svg">
    <path
        d="M13.4651 20.5987C9.03964 21.257 4.77271 18.3677 3.73645 14.0032C3.20004 11.7478 3.57797 9.41928 4.79709 7.4443C6.01622 5.46931 7.93024 4.0917 10.1856 3.55529C12.6604 2.97011 15.1962 3.49433 17.22 4.9329C17.1834 5.12796 17.159 5.32302 17.159 5.51808C17.159 6.31051 17.4638 7.10294 18.0612 7.70031L24.5957 14.1861C25.2052 14.7834 25.9855 15.0882 26.7779 15.0882C27.5703 15.0882 28.375 14.7834 28.9845 14.1739C30.1915 12.9547 30.1793 10.992 28.9723 9.78502L22.4744 3.32365C21.682 2.51903 20.5482 2.25082 19.5241 2.50684C16.6714 0.300223 13.0018 -0.51659 9.42976 0.324607C6.30881 1.05608 3.6755 2.97011 1.99311 5.68876C0.310716 8.4196 -0.213508 11.6259 0.530158 14.7469C1.22506 17.6971 2.99279 20.2451 5.50419 21.9275C7.50355 23.2685 9.81988 23.9756 12.185 23.9756C12.7702 23.9756 13.3675 23.9269 13.9649 23.8415C14.8671 23.7074 15.4888 22.8662 15.3547 21.9641C15.2206 21.0863 14.3794 20.4645 13.4651 20.5987Z"
        fill="#0477BD" />
    <path
        d="M40.1518 9.2486C39.4569 6.29832 37.6892 3.75035 35.1778 2.06796C32.6786 0.385566 29.6795 -0.284952 26.7171 0.153933C25.8149 0.288036 25.1932 1.12923 25.3273 2.03138C25.4614 2.93353 26.3026 3.55529 27.2047 3.42118C31.6301 2.76286 35.8971 5.65218 36.9333 10.0166C37.4697 12.272 37.0918 14.6005 35.8727 16.5755C34.6536 18.5505 32.7395 19.9281 30.4842 20.4645C27.985 21.0619 25.4126 20.5133 23.3767 19.026C23.5473 18.0507 23.2669 17.0144 22.5111 16.2708L16.0132 9.80939C14.8062 8.59027 12.8434 8.59027 11.6243 9.7972C11.0147 10.4068 10.71 11.1992 10.71 12.0038C10.71 12.7962 11.0147 13.5887 11.6121 14.1861L18.1466 20.6718C18.7562 21.2692 19.5364 21.5739 20.3289 21.5739C20.5971 21.5739 20.8653 21.5374 21.1213 21.4642C23.2426 23.1222 25.8149 24 28.4604 24C29.3869 24 30.3257 23.8903 31.2522 23.6708C34.3732 22.9394 37.0065 21.0253 38.6889 18.3067C40.3591 15.588 40.8833 12.3696 40.1518 9.2486Z"
        fill="#0477BD" />
    <path
        d="M52.2576 11.821H57.6217V19.4893C56.7927 19.7575 55.9393 19.9526 55.0738 20.0989C54.2082 20.233 53.2085 20.3062 52.0747 20.3062C49.6852 20.3062 47.8321 19.5991 46.5033 18.1727C45.1744 16.7585 44.5039 14.7591 44.5039 12.199C44.5039 10.5653 44.8331 9.12678 45.4914 7.89547C46.1497 6.66415 47.1006 5.72542 48.332 5.0671C49.5633 4.42096 51.0141 4.0918 52.6843 4.0918C54.3667 4.0918 55.9393 4.39658 57.3901 5.01833L56.683 6.63977C55.2566 6.03021 53.8912 5.73761 52.5745 5.73761C50.6605 5.73761 49.161 6.3106 48.076 7.45658C47.0031 8.60256 46.4545 10.1874 46.4545 12.2112C46.4545 14.3446 46.9787 15.9539 48.015 17.0511C49.0513 18.1483 50.5752 18.6969 52.5989 18.6969C53.6961 18.6969 54.7568 18.575 55.8052 18.319V13.4669H52.2819V11.821H52.2576Z"
        fill="#231F20" />
    <path
        d="M66.1192 20.2939C64.3758 20.2939 62.9982 19.7575 61.9863 18.6969C60.9745 17.6363 60.4746 16.1611 60.4746 14.2593C60.4746 12.3574 60.9379 10.8457 61.8766 9.72414C62.8153 8.60255 64.071 8.04175 65.6559 8.04175C67.131 8.04175 68.3136 8.5294 69.167 9.5047C70.0325 10.48 70.4592 11.7601 70.4592 13.3571V14.4909H62.3155C62.3521 15.8807 62.7056 16.9292 63.3639 17.6485C64.0345 18.3677 64.961 18.7213 66.1679 18.7213C67.4358 18.7213 68.7037 18.4531 69.9472 17.9288V19.5259C69.3133 19.7941 68.7159 19.9892 68.1551 20.1111C67.6065 20.2452 66.9238 20.2939 66.1192 20.2939ZM65.6437 9.54127C64.6928 9.54127 63.9369 9.84606 63.3761 10.4678C62.8153 11.0896 62.474 11.9429 62.3764 13.0402H68.5574C68.5574 11.9064 68.3014 11.0408 67.8015 10.4434C67.2895 9.84605 66.5702 9.54127 65.6437 9.54127Z"
        fill="#231F20" />
    <path
        d="M77.3349 18.8185C77.6518 18.8185 77.9566 18.7941 78.2492 18.7453C78.5418 18.6966 78.7734 18.6478 78.9563 18.599V19.9644C78.7612 20.062 78.4808 20.1351 78.1029 20.1961C77.725 20.257 77.3836 20.2936 77.0788 20.2936C74.7869 20.2936 73.6531 19.0867 73.6531 16.685V9.65065H71.9585V8.78507L73.6531 8.04141L74.4089 5.51782H75.4452V8.26085H78.871V9.65065H75.4452V16.6119C75.4452 17.3189 75.6159 17.8676 75.9572 18.2455C76.2864 18.6356 76.7497 18.8185 77.3349 18.8185Z"
        fill="#231F20" />
    <path
        d="M88.88 20.0867H80.3096V18.8676L86.7587 9.65103H80.7119V8.26123H88.7215V9.65103L82.3577 18.6847H88.88V20.0867Z"
        fill="#231F20" />
</svg>
    