<svg width="111" height="30" viewBox="0 0 111 30" fill="none" xmlns="http://www.w3.org/2000/svg">
    <path
        d="M16.5811 25.7483C11.0493 26.5712 5.71564 22.9596 4.42032 17.504C3.74981 14.6848 4.22222 11.7741 5.74612 9.30537C7.27003 6.83664 9.66256 5.11463 12.4818 4.44411C15.5753 3.71263 18.745 4.36791 21.2747 6.16612C21.229 6.40995 21.1985 6.65377 21.1985 6.8976C21.1985 7.88814 21.5795 8.87868 22.3262 9.62539L30.4943 17.7326C31.2563 18.4793 32.2316 18.8603 33.2221 18.8603C34.2127 18.8603 35.2184 18.4793 35.9804 17.7173C37.4891 16.1934 37.4738 13.7399 35.9652 12.2313L27.8427 4.15457C26.8522 3.14879 25.435 2.81353 24.1549 3.13355C20.589 0.375279 16.002 -0.645737 11.537 0.405758C7.63576 1.3201 4.34413 3.71263 2.24114 7.11095C0.138151 10.5245 -0.517129 14.5324 0.412454 18.4336C1.28108 22.1214 3.49074 25.3064 6.62999 27.4094C9.12919 29.0857 12.0246 29.9695 14.981 29.9695C15.7125 29.9695 16.4592 29.9086 17.2059 29.8019C18.3336 29.6343 19.1108 28.5828 18.9431 27.4551C18.7755 26.3579 17.724 25.5807 16.5811 25.7483Z"
        fill="#0477BD" />
    <path
        d="M49.9394 11.5609C49.0708 7.87302 46.8611 4.68806 43.7219 2.58507C40.5979 0.482079 36.8491 -0.356068 33.146 0.192538C32.0183 0.360167 31.2411 1.41166 31.4087 2.53935C31.5763 3.66704 32.6278 4.44423 33.7555 4.2766C39.2873 3.45369 44.621 7.06535 45.9163 12.5209C46.5868 15.3402 46.1144 18.2508 44.5905 20.7195C43.0666 23.1883 40.6741 24.9103 37.8548 25.5808C34.7308 26.3275 31.5154 25.6418 28.9705 23.7826C29.1838 22.5635 28.8333 21.2681 27.8885 20.3386L19.7661 12.2619C18.2574 10.738 15.8039 10.738 14.28 12.2466C13.5181 13.0086 13.1371 13.9991 13.1371 15.0049C13.1371 15.9954 13.5181 16.986 14.2648 17.7327L22.4329 25.8399C23.1949 26.5866 24.1702 26.9675 25.1607 26.9675C25.496 26.9675 25.8312 26.9218 26.1512 26.8304C28.8028 28.9029 32.0183 30.0001 35.3251 30.0001C36.4833 30.0001 37.6567 29.863 38.8149 29.5887C42.7161 28.6743 46.0077 26.2818 48.1107 22.8835C50.1985 19.4852 50.8537 15.4621 49.9394 11.5609Z"
        fill="#0477BD" />
    <path
        d="M65.0717 14.7763H71.7769V24.3617C70.7407 24.6969 69.6739 24.9408 68.592 25.1236C67.51 25.2913 66.2604 25.3827 64.8432 25.3827C61.8563 25.3827 59.5399 24.4988 57.8789 22.7159C56.2178 20.9481 55.3797 18.4489 55.3797 15.2487C55.3797 13.2067 55.7911 11.4085 56.614 9.86933C57.4369 8.33019 58.6256 7.15678 60.1647 6.33387C61.7039 5.5262 63.5174 5.11475 65.6051 5.11475C67.7081 5.11475 69.6739 5.49572 71.4874 6.27292L70.6035 8.29971C68.8206 7.53776 67.1138 7.17202 65.468 7.17202C63.0754 7.17202 61.201 7.88826 59.8447 9.32073C58.5037 10.7532 57.8179 12.7343 57.8179 15.264C57.8179 17.9308 58.4732 19.9423 59.7685 21.3139C61.0639 22.6854 62.9687 23.3711 65.4984 23.3711C66.87 23.3711 68.1958 23.2187 69.5063 22.8987V16.8336H65.1022V14.7763H65.0717Z"
        fill="#333333" />
    <path
        d="M82.3985 25.3673C80.2194 25.3673 78.4974 24.6967 77.2325 23.3709C75.9677 22.0451 75.3429 20.2012 75.3429 17.8239C75.3429 15.4466 75.9219 13.557 77.0954 12.155C78.2688 10.753 79.8384 10.052 81.8195 10.052C83.6634 10.052 85.1416 10.6616 86.2083 11.8807C87.2903 13.0998 87.8236 14.6999 87.8236 16.6962V18.1135H77.644C77.6897 19.8507 78.1316 21.1613 78.9545 22.0604C79.7927 22.9595 80.9508 23.4014 82.4595 23.4014C84.0444 23.4014 85.6292 23.0662 87.1836 22.4109V24.4072C86.3912 24.7425 85.6445 24.9863 84.9435 25.1387C84.2577 25.3063 83.4043 25.3673 82.3985 25.3673ZM81.8042 11.9264C80.6156 11.9264 79.6708 12.3074 78.9698 13.0846C78.2688 13.8618 77.8421 14.9285 77.7202 16.3H85.4464C85.4464 14.8828 85.1263 13.8008 84.5015 13.0541C83.8615 12.3074 82.9624 11.9264 81.8042 11.9264Z"
        fill="#333333" />
    <path
        d="M96.4186 23.523C96.8148 23.523 97.1958 23.4925 97.5615 23.4316C97.9273 23.3706 98.2168 23.3097 98.4454 23.2487V24.9555C98.2016 25.0774 97.8511 25.1688 97.3786 25.245C96.9062 25.3212 96.4795 25.3669 96.0986 25.3669C93.2336 25.3669 91.8164 23.8583 91.8164 20.8562V12.0633H89.6981V10.9813L91.8164 10.0517L92.7612 6.89722H94.0565V10.326H98.3387V12.0633H94.0565V20.7648C94.0565 21.6486 94.2699 22.3344 94.6966 22.8068C95.108 23.2944 95.6871 23.523 96.4186 23.523Z"
        fill="#333333" />
    <path
        d="M110.85 25.1083H100.137V23.5844L108.198 12.0637H100.64V10.3264H110.652V12.0637L102.697 23.3558H110.85V25.1083Z"
        fill="#333333" />
</svg>
    